<?xml version="1.0" encoding="utf-8"?>
<!-- Generator: Adobe Illustrator 21.1.0, SVG Export Plug-In . SVG Version: 6.00 Build 0)  -->
<svg version="1.1" id="圖層_1" xmlns="http://www.w3.org/2000/svg" xmlns:xlink="http://www.w3.org/1999/xlink" x="0px" y="0px"
	 viewBox="0 0 100 125" style="enable-background:new 0 0 100 125;" xml:space="preserve">
<g>
	<path d="M96,52.6c0-5.4-1.3-9.2-3.9-11.6c-0.5-0.4-1.2-0.9-2-1.3C86.5,6.2,63.4,2.5,50,2.5c-13.3,0-36.4,3.7-40,37.2
		c-0.8,0.4-1.5,0.9-2,1.3c-2.7,2.4-4,6.2-4,11.6c0,4.6,1.2,7.9,3.5,10.1c-1,12.1-0.9,21,3,26.1c2.7,3.6,10.1,2,18.1,0.8
		c0.9,0.7,1.8,1.4,2.7,2.1c5.5,3.9,11.9,5.9,18.6,5.9s13.2-2,18.6-5.9c1-0.7,1.9-1.4,2.8-2.1c8,1.2,15.4,2.8,18.1-0.8
		c3.9-5,4-14,3-26.1C94.8,60.5,96,57.2,96,52.6z M84.8,58.7c-2.1,0.2-3.7,1.8-3.9,3.9C80,71.2,74.6,79.1,64.7,86
		c-8.7,6.1-20.8,6.1-29.5,0C25.4,79.1,20,71.2,19.1,62.6c-0.2-2.1-1.8-3.7-3.9-3.9c-2.5-0.3-4.4-0.4-4.4-6.1c0-4.4,1-6,1.6-6.6
		c0.1-0.1,0.3-0.3,0.7-0.4c0.3,1.3,1.3,2.4,2.7,2.6c1.8,0.3,3.6-0.9,3.9-2.8c1.4-8,3-14,5.5-18.4l1.9,8.1c0.3,1.3,1.5,2.3,2.9,2.3
		h40c1.4,0,2.6-1,2.9-2.3l1.9-8.1c2.5,4.4,4.1,10.4,5.5,18.4c0.3,1.6,1.7,2.8,3.3,2.8c0.2,0,0.4,0,0.6,0c1.4-0.2,2.4-1.3,2.7-2.6
		c0.4,0.1,0.6,0.3,0.7,0.4c0.6,0.6,1.6,2.1,1.6,6.6C89.2,58.2,87.3,58.4,84.8,58.7z"/>
	<circle cx="37.5" cy="51.2" r="6"/>
	<circle cx="62.5" cy="51.2" r="6"/>
	<circle cx="50" cy="71" r="8"/>
</g>
</svg>
