<?xml version="1.0" encoding="utf-8"?>
<!-- Generator: Adobe Illustrator 21.1.0, SVG Export Plug-In . SVG Version: 6.00 Build 0)  -->
<svg version="1.1" id="圖層_1" xmlns="http://www.w3.org/2000/svg" xmlns:xlink="http://www.w3.org/1999/xlink" x="0px" y="0px"
	 viewBox="0 0 100 125" style="enable-background:new 0 0 100 125;" xml:space="preserve">
<g>
	<path d="M89.6,37.6c0-3-0.1-6.4-0.4-10.3C87.6,7.8,70.7,4.4,50,4.4S12.4,7.8,10.8,27.3c-0.3,3.9-0.4,7.3-0.4,10.3
		c-4.6,2.1-7.9,7-7.9,12.7c0,6.9,4.8,12.7,11,13.7v8.4c0,12.8,10.4,23.2,23.3,23.2h26.5c12.8,0,23.3-10.4,23.3-23.2V64
		c6.2-1,11-6.7,11-13.7C97.5,44.6,94.2,39.7,89.6,37.6z M50,30.9c10.9,0,20.6-1.6,27.1-4.2c1.3,2.3,2.2,7.8,2.2,10.7H20.7
		c0-2.9,0.8-8.4,2.2-10.7C29.4,29.3,39.1,30.9,50,30.9z M70.1,42.9v6.4c0,4.9-1.8,6.7-6.7,6.7s-6.7-1.8-6.7-6.7v-6.4H70.1z
		 M43.2,42.9v6.4c0,4.9-1.8,6.7-6.7,6.7s-6.7-1.8-6.7-6.7v-6.4H43.2z M84.6,56.9c-0.5,0-0.7,0-0.8-0.1c-1.1-0.3-2.2,0-3.1,0.7
		s-1.4,1.7-1.4,2.9v12c0,8.8-7.2,16-16.1,16H36.8c-8.9,0-16.1-7.2-16.1-16v-12c0-1.1-0.5-2.2-1.4-2.9s-2-0.9-3.1-0.7
		c-0.1,0-0.4,0.1-0.8,0.1c-3.1,0-5.7-3-5.7-6.6c0-2.8,1.6-5.2,3.8-6.1v0.7c0,2,1.6,3.6,3.6,3.6s3.6-1.6,3.6-3.6V43h3.7v6.4
		c0,10,6.6,12.1,12.1,12.1s12.1-2.1,12.1-12.1v-5c0-0.8,0.6-1.4,1.4-1.4c0.8,0,1.4,0.6,1.4,1.4v5c0,10,6.6,12.1,12.1,12.1
		s12.1-2.1,12.1-12.1V43h3.7v1.9c0,2,1.6,3.6,3.6,3.6s3.6-1.6,3.6-3.6v-0.7c2.2,0.9,3.8,3.3,3.8,6.1C90.3,54,87.7,56.9,84.6,56.9z"
		/>
	<circle cx="36.5" cy="49.3" r="3.5"/>
	<circle cx="63.5" cy="49.3" r="3.5"/>
	<path d="M63.9,67.3c-1.4-0.9-3.2-0.5-4.1,0.9c-1.9,2.9-5.7,4.7-9.8,4.7s-7.9-1.8-9.8-4.7c-0.9-1.4-2.7-1.8-4.1-0.9
		c-1.4,0.9-1.8,2.7-0.9,4.1c3,4.6,8.6,7.4,14.8,7.4s11.8-2.8,14.8-7.4C65.6,70,65.3,68.2,63.9,67.3z"/>
</g>
</svg>
