<?xml version="1.0" encoding="utf-8"?>
<!-- Generator: Adobe Illustrator 21.1.0, SVG Export Plug-In . SVG Version: 6.00 Build 0)  -->
<svg version="1.1" id="圖層_1" xmlns="http://www.w3.org/2000/svg" xmlns:xlink="http://www.w3.org/1999/xlink" x="0px" y="0px"
	 viewBox="0 0 100 75" style="enable-background:new 0 0 100 75;" xml:space="preserve">
<style type="text/css">
	.st0{fill:#CD4D46;}
</style>
<polygon class="st0" points="71.2,24.8 69.5,24.4 73.5,28.4 "/>
<polygon class="st0" points="68.3,24 66.4,23.4 69.7,26.7 "/>
<polygon class="st0" points="73.8,25.3 72.3,25 76.8,29.5 "/>
<polygon class="st0" points="68.8,26.7 65.8,23.7 66.1,25 "/>
<polygon class="st0" points="65.5,29.3 65.5,25.4 61.2,24.3 "/>
<polygon class="st0" points="75.9,25.6 74.8,25.4 79.3,30 "/>
<polygon class="st0" points="86.8,34.9 82.3,30.5 85.7,34.5 "/>
<polygon class="st0" points="65,22.9 64.5,22.7 64.5,22.7 63.4,22.2 63.4,22.2 63.4,22.2 63,22 65.3,24.3 "/>
<polygon class="st0" points="88.6,35.6 85.5,32.4 88.1,35.4 "/>
<polygon class="st0" points="88.2,43.7 89.4,36.5 88.2,36.1 "/>
<polygon class="st0" points="79.9,26 79.9,26 80.1,26.2 "/>
<polygon class="st0" points="79,25.9 78.6,25.9 81.5,28.8 "/>
<polygon class="st0" points="77.6,25.8 76.9,25.7 81,29.9 "/>
<polygon class="st0" points="49.2,10.1 50.8,5.8 49.2,5.8 48.6,10 49,10.1 "/>
<polygon class="st0" points="60.6,21.3 60.6,23.5 64.6,24.6 "/>
<polygon class="st0" points="89.4,48 89.4,39.9 88.2,47.2 "/>
<polygon class="st0" points="51.1,10.1 51.6,10 51.1,6.8 49.9,10.1 "/>
<polygon class="st0" points="48.3,6.1 47.2,6.5 46.4,8.7 46.8,9.1 "/>
<polygon class="st0" points="52.8,9.6 52.9,6.4 51.6,6 52.1,9.8 "/>
<polygon class="st0" points="46.7,9.9 46.6,9.9 46,9.3 44.3,18.9 "/>
<polygon class="st0" points="48,9.8 48.4,7.3 47.3,9.5 "/>
<polygon class="st0" points="52,10.5 52,10.5 51.6,10.6 56,21.8 53,10.2 52,10.5 "/>
<polygon class="st0" points="64.8,29.3 60.3,24.2 58.1,26.4 "/>
<polygon class="st0" points="57.7,17.9 54.2,9.2 53.5,9.8 "/>
<polygon class="st0" points="60,20.7 57.1,14.9 60,22.2 "/>
<polygon points="54,7.5 53.9,7.4 54,7.6 "/>
<polygon class="st0" points="53.4,7.8 53.4,9.1 53.8,8.7 "/>
<polygon class="st0" points="20.6,59.2 14.5,53.1 20.1,59.9 "/>
<polygon class="st0" points="14.9,43.2 17.1,34.2 14.9,35 "/>
<polygon class="st0" points="12.7,47.4 20.5,55.2 14.5,46.2 "/>
<polygon class="st0" points="17.3,33.5 21,29.8 16.1,33.9 "/>
<polygon class="st0" points="14.3,45.6 14.3,38 12.7,46.7 "/>
<polygon class="st0" points="12.5,44.1 14.2,35.3 12.5,35.8 "/>
<polygon class="st0" points="20.7,32.1 24.2,28.6 19.2,32.7 "/>
<polygon class="st0" points="33.5,25.3 34.1,25 34.6,24.5 "/>
<polygon class="st0" points="24.7,30.3 27.7,27.3 22.9,31.1 "/>
<polygon class="st0" points="42.4,25.9 45,11.6 40.2,23.7 "/>
<polygon class="st0" points="29.7,34.7 34.5,39.5 34,30.7 "/>
<polygon class="st0" points="29.1,28.1 31.2,26 27.5,28.9 "/>
<polygon class="st0" points="29.6,33.5 33.5,26 29.6,28.5 "/>
<polygon class="st0" points="90.1,36.7 90.1,43.2 90.7,36.9 "/>
<polygon class="st0" points="79.5,60.2 79,59.5 68.8,63 "/>
<polygon class="st0" points="22,57.5 14.9,50.4 21,58.7 "/>
<polygon class="st0" points="89.8,48.9 83.7,55.1 90.6,49.4 "/>
<polygon class="st0" points="77.7,57.8 65.7,61.8 78.6,59 "/>
<polygon class="st0" points="90.8,42.1 90.1,48.4 90.8,48.8 "/>
<polygon class="st0" points="89.9,36 89.7,35.8 89.9,36 "/>
<polygon class="st0" points="78.2,57.5 79.1,58.7 86.6,51.3 "/>
<polygon class="st0" points="24.2,55.7 22.9,57.3 36.2,61.8 "/>
<polygon class="st0" points="22.5,57.9 21.5,59 34.3,63.3 "/>
<polygon class="st0" points="40.2,61 27.8,56.8 39.7,62.9 "/>
<polygon class="st0" points="60.5,65.6 49,65.6 60.6,66.4 "/>
<polygon class="st0" points="40.2,63.7 39.8,65 54.4,65 "/>
<polygon class="st0" points="59.9,61 60.4,63 73.7,58.5 "/>
<polygon class="st0" points="30.4,33.3 34,29.9 34,26.4 "/>
<polygon class="st0" points="91.6,49.3 91.6,46.4 91.4,49.2 "/>
<polygon class="st0" points="87.6,53.3 91.4,49.9 91.1,49.7 "/>
<polygon class="st0" points="91.4,37.1 91.4,39.9 91.5,37.2 "/>
<polygon class="st0" points="61.5,67.1 67.3,65.2 61.4,66.9 "/>
<polygon class="st0" points="80.1,59.9 86.5,53.5 79.5,59.2 "/>
<polygon class="st0" points="61.2,66.3 71.8,62.8 61.1,65.6 "/>
<polygon class="st0" points="60.6,63.6 60.9,65 73.6,60.7 "/>
<polygon class="st0" points="74.8,62.4 80.1,60.9 80,60.7 "/>
<polygon class="st0" points="80.7,60.6 84.3,57 80.5,60.4 "/>
<polygon class="st0" points="54.9,67 60.9,67.2 60.8,67 "/>
<polygon class="st0" points="19.5,60.6 19.7,60.4 16.1,56.8 "/>
<polygon class="st0" points="23.2,25.7 22.5,25.8 18.5,29.8 "/>
<polygon class="st0" points="25.2,25.5 24.2,25.6 19.9,29.9 "/>
<polygon class="st0" points="27.6,25.1 26.4,25.3 21.9,29.7 "/>
<polygon class="st0" points="21.1,25.9 18.4,28.7 21.5,25.9 "/>
<polygon class="st0" points="14.2,33.2 11.7,35.5 12.1,35.4 "/>
<polygon class="st0" points="10.7,36.5 10.7,44.3 11.9,36.1 "/>
<polygon class="st0" points="14.4,34.5 17.7,31.3 13.6,34.8 "/>
<polygon class="st0" points="39.5,23.7 39.5,21.7 36.2,27.5 "/>
<polygon class="st0" points="39.5,66.4 51.4,66.4 39.7,65.7 "/>
<polygon class="st0" points="30.3,24.4 28.9,24.8 25,28.7 "/>
<polygon class="st0" points="42.2,26.6 40.1,24.4 39,32.7 "/>
<polygon class="st0" points="33.3,23.5 31.8,24.1 28.6,27.3 "/>
<polygon class="st0" points="36.3,22.4 35.9,22.6 35.8,22.6 35.8,22.6 35,23 33.1,24.9 "/>
<polygon class="st0" points="34.6,29 38.7,21.9 34.6,25.3 "/>
<polygon class="st0" points="38.9,66.3 39.1,65.5 28.9,62.1 "/>
<polygon class="st0" points="38.7,67.1 38.7,66.9 33.1,65 "/>
<polygon class="st0" points="20.6,60.2 31.3,63.8 21.1,59.5 "/>
<polygon class="st0" points="27.5,59.5 39.2,64.9 39.6,63.6 "/>
<polygon class="st0" points="20,60.9 25.6,62.8 20.2,60.7 "/>
<polygon class="st0" points="39.3,67.2 45.5,67.2 39.3,67 "/>
<polygon class="st0" points="9.6,49.4 16,55.9 10.3,48.9 "/>
<polygon class="st0" points="8.6,37.2 8.6,39.8 8.8,37.1 "/>
<polygon class="st0" points="8.8,46.7 8.6,49.3 8.8,49.2 "/>
<polygon class="st0" points="10.1,48.4 10.1,42.2 9.4,48.8 "/>
<polygon class="st0" points="9.4,36.9 9.4,43.4 10.1,36.7 "/>
<path class="st0" d="M40.7,19.4C40.7,19.4,40.7,19.4,40.7,19.4L40.7,19.4c0,0.1-0.1,0.1-0.1,0.1c0,0,0,0,0,0l-0.1,0.1c0,0,0,0,0,0
	c0,0,0,0,0,0.1l0,0.1l-0.2,0.5l-0.2,0.5v1.4l2.6-7.2L40.7,19.4z"/>
<polygon class="st0" points="8.8,49.9 12.5,53.6 9,49.8 "/>
<polygon class="st0" points="42.3,48.4 34.9,40.7 32.1,45 "/>
<polygon class="st0" points="43.7,48.8 55.4,48.8 44.7,43.9 "/>
<polygon class="st0" points="55.9,43.1 64.3,40.3 54.7,37.2 "/>
<polygon class="st0" points="42.6,53.4 56,53.4 43.5,49.4 "/>
<polygon class="st0" points="56.4,48.5 55.4,43.8 45.9,43.8 "/>
<polygon class="st0" points="41.7,57.3 56.2,57.3 42.5,54.1 "/>
<polygon class="st0" points="56.1,60.5 41.6,57.9 40.9,60.5 "/>
<polygon class="st0" points="69,45.3 71.5,48.7 78.1,42.1 "/>
<polygon class="st0" points="71.3,49.5 60.3,53.2 73.4,52.3 "/>
<polygon class="st0" points="58.4,57.2 57.6,54 44.8,54 "/>
<polygon class="st0" points="57,43.4 67.9,44.8 65.1,40.6 "/>
<polygon class="st0" points="81.2,44.8 71.9,49.3 74,52.1 "/>
<polygon class="st0" points="58.5,57.9 44.8,57.9 59.2,60.4 "/>
<polygon class="st0" points="65.8,40.5 68.6,44.7 74.4,38.9 "/>
<polygon class="st0" points="83.7,47.2 74.4,52.6 76.1,54.8 "/>
<polygon class="st0" points="69.7,44.4 78.6,41.3 75.3,38.8 "/>
<polygon class="st0" points="78.9,40.8 78.9,33.4 75.7,38.3 "/>
<polygon class="st0" points="58.3,54 59,57.2 71.6,53 "/>
<polygon class="st0" points="75.6,37.4 78.8,32.5 75.6,31 "/>
<polygon class="st0" points="71.1,34 74.8,30.6 71.1,28.8 "/>
<polygon class="st0" points="66.2,39.8 74.6,38.2 70.9,35.1 "/>
<polygon class="st0" points="75,37.8 75,31.3 71.3,34.7 "/>
<polygon class="st0" points="57.2,49.4 58.1,53.3 69.6,49.5 "/>
<polygon class="st0" points="82.7,44.2 75.8,51.1 85,45.7 "/>
<polygon class="st0" points="73.8,52.9 61.8,56.9 75.5,55.1 "/>
<polygon class="st0" points="82.4,43.2 82.4,35.1 79.6,41.3 "/>
<polygon class="st0" points="79.5,40 82.3,33.9 79.5,32.8 "/>
<polygon class="st0" points="72.9,48.2 82.1,43.7 79.3,41.8 "/>
<polygon class="st0" points="57.5,53.2 56.6,49.4 45.2,49.4 "/>
<polygon class="st0" points="35.1,39.3 38.2,34.4 34.7,30.8 "/>
<polygon class="st0" points="28.8,49.6 26.7,52.4 39.3,56.6 "/>
<polygon class="st0" points="31.2,45.2 25.6,39.5 28.8,48.6 "/>
<polygon class="st0" points="41.9,53.9 30.8,50.2 41.2,57.1 "/>
<polygon class="st0" points="57,48.7 67.2,45.3 56,43.8 "/>
<polygon class="st0" points="68.4,45.5 58.6,48.8 70.8,48.9 "/>
<polygon class="st0" points="26.3,51.9 28.3,49.2 21.9,42.8 "/>
<polygon class="st0" points="15.1,45.1 17.2,43.6 17.2,36.3 "/>
<polygon class="st0" points="70.6,34 70.6,28.7 66.4,30.2 "/>
<polygon class="st0" points="12.2,47.8 10.9,48.6 18.3,56 "/>
<polygon class="st0" points="22.7,53.5 17.4,44.2 15.1,45.8 "/>
<polygon class="st0" points="10.8,47.9 11.9,47.2 11.9,39.9 "/>
<polygon class="st0" points="25.3,38.4 31.1,44.2 29.1,35.3 "/>
<polygon class="st0" points="82.8,33.5 84.4,34 79.4,29 "/>
<polygon class="st0" points="83,41.9 85.2,35 83,34.2 "/>
<polygon class="st0" points="78.4,53.4 87.4,47.4 85.6,46.2 "/>
<polygon class="st0" points="85.3,45.2 85.3,36.7 83,43.7 "/>
<polygon class="st0" points="65.3,39.8 70.2,35 62.1,34.6 "/>
<polygon class="st0" points="75.5,30.3 77.9,31.4 73.2,26.7 "/>
<polygon class="st0" points="71.1,28.1 73.7,29.4 69.7,25.4 "/>
<polygon class="st0" points="85.5,49.3 76.5,55.4 77.8,57 "/>
<polygon class="st0" points="75.9,55.6 63.7,59.7 77.2,57.3 "/>
<polygon class="st0" points="59.2,57.8 59.8,60.4 73,56 "/>
<polygon class="st0" points="85.9,43.2 87.6,35.8 85.9,35.2 "/>
<polygon class="st0" points="88,47.7 81,54.7 89.2,48.6 "/>
<polygon class="st0" points="87.6,46.8 87.6,38.2 85.9,45.6 "/>
<polygon class="st0" points="79.4,32.1 81.4,32.9 76.4,27.8 "/>
<polygon class="st0" points="53.7,36.4 47.5,28.8 46.2,36.4 "/>
<polygon class="st0" points="48.2,10.5 48.2,10.5 47.3,10.2 47.5,22.6 48.6,10.6 48.2,10.5 "/>
<polygon class="st0" points="42.9,26.3 47,27.7 46.7,11.9 "/>
<polygon class="st0" points="47.6,27.8 52.4,27.8 49.1,12.4 "/>
<polygon class="st0" points="39,34.1 45.4,36.3 42.5,27.3 "/>
<polygon class="st0" points="34.7,30.1 38.3,33.7 39.4,24.7 "/>
<polygon class="st0" points="62.3,34 70,34.4 65.9,30.5 "/>
<polygon class="st0" points="61.7,33.8 65.3,30.2 58.2,27.1 "/>
<polygon class="st0" points="49.4,10.7 49.3,10.7 52.1,23.3 50.9,10.7 "/>
<polygon class="st0" points="66.1,29.6 70.2,28.2 66.1,25.7 "/>
<polygon class="st0" points="53.5,28.2 60.8,33.4 57.4,26.9 "/>
<polygon class="st0" points="54.2,12.4 57.7,25.9 60,23.7 "/>
<polygon class="st0" points="53.1,27.7 57.2,26.3 51.7,12.5 "/>
<polygon class="st0" points="45.1,61.1 59.8,63 59.3,61.1 "/>
<polygon class="st0" points="44.1,43.7 35.9,40.9 43.1,48.4 "/>
<polygon class="st0" points="42.1,53.2 43,49.3 33.1,46 "/>
<polygon class="st0" points="44.3,42.7 45.5,36.9 39.3,34.9 "/>
<polygon class="st0" points="29.2,49 40.8,52.9 31.7,45.6 "/>
<polygon class="st0" points="29.8,35.6 31.8,44.4 34.5,40.3 "/>
<polygon class="st0" points="60,63.7 46.3,63.7 60.3,65 "/>
<polygon class="st0" points="54.5,36.3 60.9,34.2 53.2,28.8 "/>
<polygon class="st0" points="47.9,28.4 53.8,35.7 52.6,28.4 "/>
<polygon class="st0" points="55.3,36.7 64.6,39.7 61.5,34.7 "/>
<polygon class="st0" points="43.1,27 45.8,35.5 47,28.3 "/>
<polygon class="st0" points="44.9,43.2 54.7,43.2 46.1,37.2 "/>
<polygon class="st0" points="55.2,42.8 54,37 46.8,37 "/>
<polygon class="st0" points="25.8,52.5 18.9,45.6 24.1,54.8 "/>
<polygon class="st0" points="23.7,55.3 16.5,48.1 22.4,57 "/>
<polygon class="st0" points="26.3,52.9 24.6,55.1 37.8,59.6 "/>
<polygon class="st0" points="17.8,41.7 20.4,32.9 17.8,33.9 "/>
<polygon class="st0" points="40.8,61.1 40.3,63.1 55.6,63.1 "/>
<polygon class="st0" points="29,34.6 29,29.7 25.6,37.4 "/>
<polygon class="st0" points="41,57.8 29,53.7 40.4,60.3 "/>
<polygon class="st0" points="20.6,41.2 20.6,34.4 18,43 "/>
<polygon class="st0" points="21.4,41.4 28,48 24.7,38.9 "/>
<polygon class="st0" points="25.2,37 28.7,28.9 25.2,30.8 "/>
<polygon class="st0" points="24.6,38.2 24.6,32.3 21.5,40.5 "/>
<polygon class="st0" points="18,43.8 25.2,51.1 20.8,41.8 "/>
<polygon class="st0" points="21.2,39.7 24.3,31.1 21.2,32.5 "/>
<polygon class="st0" points="35.3,40.1 43.8,42.9 38.5,34.9 "/>
<rect x="-109.5" y="-12.5" class="st0" width="64" height="76"/>
</svg>
